<svg width="649" height="439" viewBox="0 0 649 439" fill="none" xmlns="http://www.w3.org/2000/svg">
<g clip-path="url(#clip0_14_64)">
<path d="M43.6761 330.811C40.5944 330.811 37.5062 330.938 34.4905 331.194L34.0516 331.231C14.0479 333 -0.583858 343.261 0.0179051 355.101L0.13424 357.242C0.210957 358.595 0.292696 360.05 0.359976 361.664C0.396416 362.46 1.48241 363.071 2.83372 363.071H494.876C529.567 362.86 564.133 362.595 597.607 362.283C603.885 362.296 610.159 361.971 616.402 361.309C625.704 360.208 632.161 358.025 636.143 354.635H636.144C641.095 350.432 641.251 345.14 640.952 339.16C640.342 327.086 639.737 314.401 639.133 301.755C638.6 290.61 638.069 279.495 637.539 268.853C637.21 262.537 636.481 256.963 630.858 252.703C624.764 248.095 613.649 245.76 597.822 245.76C597.631 245.76 597.441 245.76 597.247 245.76C547.647 245.937 498.5 262.996 474.954 288.209C472.242 291.113 469.716 294.221 467.272 297.228C463.661 301.669 459.929 306.26 455.474 310.367C453.063 312.62 450.454 314.654 447.681 316.443C447.49 316.575 447.271 316.717 447.04 316.851C446.51 317.196 445.957 317.529 445.417 317.825C442.258 319.65 438.93 321.164 435.478 322.345L435.13 322.462C434.868 322.556 434.583 322.65 434.299 322.735C432.306 323.375 430.235 323.929 428.161 324.376C419.185 326.355 408.979 326.829 397.827 325.785C387.586 324.8 377.476 322.739 367.666 319.637C357.339 316.373 347.673 312.303 338.325 308.367C334.219 306.637 329.972 304.85 325.731 303.156C324.934 302.837 324.15 302.525 323.353 302.214C318.173 300.194 313.477 298.526 308.996 297.115C297.895 293.604 286.403 291.475 274.781 290.776C262.445 290.101 251.574 291.375 242.478 294.554C239.97 295.428 237.528 296.48 235.171 297.703C224.397 303.3 217.755 311.559 211.332 319.546C203.343 329.481 195.081 339.756 178.767 345.082C159.942 351.233 132.465 348.677 113.024 344.233C106.912 342.836 100.808 341.228 94.9039 339.673C92.5195 339.045 90.1334 338.421 87.7456 337.801C83.0534 336.589 79.2133 335.661 75.6605 334.877L74.5368 334.627C73.9118 334.491 73.2861 334.356 72.6491 334.226C68.4292 333.34 64.4997 332.643 60.6301 332.094L59.7145 331.961C57.879 331.719 56.163 331.517 54.4791 331.348L53.8069 331.281C50.5088 330.968 47.0956 330.811 43.6761 330.811Z" fill="#F2F2F2"/>
<path d="M552.476 344.024C566.321 331.545 586.915 325.271 604.189 332.268C586.469 342.108 572.801 357.9 565.601 376.85C562.851 384.168 560.554 392.594 553.79 396.512C549.582 398.95 544.346 399.069 539.627 397.892C534.908 396.715 530.582 394.356 526.316 392.02L525.102 391.993C530.551 374.166 538.631 356.503 552.476 344.024Z" fill="#E6E6E6"/>
<path d="M604.092 332.647C588.793 334.625 574.506 341.373 563.26 351.935C560.799 354.166 558.704 356.771 557.054 359.654C555.537 362.514 554.813 365.729 554.959 368.963C555.033 371.982 555.459 375.061 554.799 378.046C554.439 379.568 553.76 380.997 552.809 382.239C551.857 383.481 550.654 384.508 549.278 385.252C545.897 387.196 542.02 387.809 538.207 388.276C533.975 388.795 529.57 389.267 525.905 391.642C525.461 391.93 525.041 391.224 525.484 390.936C531.859 386.805 539.926 388.308 546.781 385.551C549.98 384.264 552.81 382.005 553.812 378.59C554.688 375.604 554.251 372.429 554.149 369.373C553.961 366.219 554.548 363.068 555.859 360.193C557.357 357.236 559.348 354.555 561.745 352.265C567.061 347.024 573.168 342.651 579.841 339.307C587.437 335.449 595.636 332.918 604.085 331.825C604.608 331.758 604.612 332.58 604.092 332.647Z" fill="white"/>
<path d="M566.681 348.321C565.166 346.193 564.456 343.596 564.678 340.993C564.901 338.39 566.041 335.951 567.895 334.111C568.272 333.74 568.866 334.308 568.489 334.679C566.759 336.389 565.697 338.661 565.495 341.086C565.293 343.51 565.964 345.927 567.386 347.9C567.695 348.329 566.988 348.748 566.681 348.321Z" fill="white"/>
<path d="M554.719 367.438C559.977 368.369 565.392 367.285 569.885 364.4C570.33 364.114 570.751 364.82 570.306 365.106C565.625 368.099 559.987 369.216 554.518 368.234C553.997 368.14 554.201 367.344 554.719 367.438Z" fill="white"/>
<path d="M587.503 336.536C587.918 337.482 588.561 338.309 589.375 338.945C590.189 339.58 591.147 340.003 592.165 340.177C592.687 340.264 592.483 341.06 591.964 340.973C590.841 340.777 589.782 340.308 588.882 339.608C587.981 338.908 587.266 337.998 586.798 336.957C586.746 336.863 586.731 336.752 586.758 336.647C586.784 336.543 586.849 336.452 586.94 336.394C587.034 336.339 587.146 336.323 587.251 336.349C587.356 336.376 587.447 336.443 587.503 336.536Z" fill="white"/>
<path d="M623.21 392.448C622.883 392.403 622.555 392.358 622.223 392.317C617.816 391.732 613.368 391.506 608.924 391.642C608.581 391.647 608.232 391.657 607.89 391.672C597.187 392.112 586.659 394.536 576.841 398.82C572.936 400.529 569.166 402.532 565.565 404.812C560.592 407.962 555.45 411.773 549.89 413.057C549.311 413.198 548.725 413.302 548.133 413.37L525.162 393.476C525.133 393.405 525.098 393.338 525.069 393.267L524.115 392.514C524.293 392.384 524.48 392.252 524.657 392.121C524.76 392.045 524.868 391.974 524.97 391.897C525.04 391.848 525.111 391.799 525.171 391.75C525.194 391.734 525.218 391.717 525.237 391.706C525.297 391.658 525.358 391.619 525.414 391.576C526.457 390.837 527.507 390.104 528.564 389.378C528.568 389.372 528.568 389.373 528.578 389.372C536.578 383.759 545.216 379.114 554.31 375.537C554.582 375.434 554.86 375.325 555.143 375.231C559.238 373.708 563.451 372.522 567.74 371.686C570.09 371.235 572.461 370.904 574.844 370.693C581.003 370.16 587.208 370.6 593.23 371.996C605.236 374.78 616.217 381.374 622.721 391.658C622.887 391.921 623.049 392.18 623.21 392.448Z" fill="#E6E6E6"/>
<path d="M622.906 392.695C609.501 385.061 594.031 381.846 578.694 383.506C575.386 383.805 572.146 384.623 569.093 385.931C566.16 387.302 563.647 389.433 561.816 392.103C560.059 394.558 558.545 397.273 556.222 399.259C555.017 400.257 553.615 400.99 552.108 401.409C550.601 401.827 549.022 401.922 547.475 401.688C543.606 401.204 540.141 399.358 536.816 397.436C533.124 395.301 529.323 393.025 524.968 392.715C524.44 392.677 524.529 391.86 525.056 391.898C532.633 392.438 538.169 398.496 545.302 400.422C548.631 401.321 552.25 401.222 555.105 399.099C557.602 397.242 559.165 394.444 560.923 391.942C562.671 389.311 565.037 387.148 567.813 385.643C570.79 384.183 573.993 383.241 577.286 382.857C584.685 381.873 592.193 382.06 599.534 383.409C607.921 384.902 615.991 387.819 623.395 392.034C623.853 392.295 623.362 392.954 622.906 392.695Z" fill="white"/>
<path d="M583.601 382.681C583.672 380.069 584.668 377.568 586.413 375.623C588.157 373.679 590.536 372.418 593.124 372.066C593.648 371.996 593.78 372.807 593.256 372.877C590.845 373.2 588.629 374.375 587.009 376.189C585.388 378.003 584.469 380.337 584.418 382.769C584.406 383.298 583.589 383.206 583.601 382.681Z" fill="white"/>
<path d="M562.543 390.741C566.18 394.651 571.157 397.046 576.481 397.449C577.008 397.488 576.919 398.305 576.392 398.265C570.853 397.836 565.679 395.333 561.903 391.256C561.543 390.867 562.185 390.354 562.543 390.741Z" fill="white"/>
<path d="M607.32 385.81C607.082 386.815 607.098 387.863 607.365 388.861C607.632 389.858 608.143 390.773 608.851 391.524C609.215 391.909 608.573 392.421 608.211 392.039C607.432 391.206 606.869 390.194 606.572 389.093C606.274 387.992 606.251 386.834 606.503 385.722C606.519 385.615 606.574 385.518 606.658 385.45C606.742 385.383 606.848 385.349 606.956 385.358C607.064 385.37 607.163 385.424 607.231 385.509C607.299 385.594 607.331 385.702 607.32 385.81Z" fill="white"/>
<path d="M190.04 356.435C201.377 339.236 221.657 326.795 242.078 329.472C225.863 344.927 215.637 365.62 213.207 387.891C212.302 396.483 212.189 406.134 206.044 412.207C202.221 415.986 196.654 417.57 191.279 417.624C185.905 417.679 180.622 416.359 175.41 415.048L174.104 415.356C174.974 394.774 178.703 373.635 190.04 356.435Z" fill="#E6E6E6"/>
<path d="M242.08 329.904C226.267 336.276 212.864 347.47 203.774 361.895C201.762 364.966 200.246 368.335 199.283 371.878C198.456 375.359 198.576 378.998 199.631 382.418C200.551 385.626 201.863 388.8 201.987 392.176C202.025 393.905 201.697 395.622 201.024 397.215C200.352 398.808 199.351 400.241 198.086 401.42C195.011 404.44 191.034 406.174 187.087 407.735C182.704 409.467 178.124 411.198 174.866 414.758C174.471 415.189 173.825 414.551 174.219 414.12C179.888 407.927 188.934 407.29 195.499 402.434C198.562 400.168 200.96 396.964 201.082 393.033C201.188 389.596 199.838 386.321 198.879 383.081C197.801 379.76 197.552 376.226 198.155 372.788C198.934 369.207 200.318 365.786 202.245 362.67C206.473 355.585 211.788 349.209 217.995 343.776C225.046 337.535 233.111 332.547 241.844 329.027C242.384 328.81 242.617 329.688 242.08 329.904Z" fill="white"/>
<path d="M206.427 357.078C204.215 355.224 202.733 352.644 202.247 349.798C201.761 346.952 202.302 344.026 203.773 341.542C204.073 341.041 204.866 341.483 204.566 341.985C203.192 344.295 202.688 347.021 203.146 349.67C203.604 352.319 204.994 354.717 207.065 356.431C207.514 356.805 206.874 357.449 206.427 357.078Z" fill="white"/>
<path d="M198.951 380.853C204.833 380.386 210.323 377.719 214.327 373.384C214.723 372.954 215.369 373.592 214.973 374.021C210.799 378.525 205.08 381.289 198.957 381.76C198.374 381.805 198.37 380.897 198.951 380.853Z" fill="white"/>
<path d="M225.42 338.68C226.126 339.575 227.044 340.282 228.091 340.735C229.138 341.188 230.282 341.374 231.418 341.276C232.001 341.224 232.004 342.133 231.425 342.184C230.169 342.286 228.906 342.079 227.749 341.581C226.591 341.083 225.572 340.309 224.783 339.326C224.7 339.24 224.654 339.126 224.653 339.006C224.652 338.887 224.697 338.772 224.778 338.684C224.863 338.599 224.978 338.551 225.098 338.55C225.218 338.549 225.334 338.596 225.42 338.68Z" fill="white"/>
<path d="M279.161 388.543C278.798 388.586 278.435 388.629 278.068 388.678C273.192 389.279 268.372 390.275 263.657 391.656C263.291 391.757 262.921 391.865 262.559 391.976C251.234 395.425 240.649 400.947 231.34 408.261C227.638 411.175 224.164 414.367 220.946 417.808C216.503 422.56 212.063 428.067 206.474 430.988C205.895 431.299 205.296 431.574 204.683 431.812L174.581 416.926C174.53 416.858 174.475 416.796 174.423 416.728L173.194 416.189C173.347 416 173.511 415.807 173.664 415.618C173.753 415.508 173.848 415.401 173.937 415.291C173.998 415.219 174.06 415.146 174.111 415.078C174.131 415.053 174.152 415.029 174.168 415.012C174.22 414.943 174.274 414.885 174.322 414.823C175.232 413.743 176.151 412.667 177.079 411.596C177.083 411.589 177.083 411.589 177.093 411.586C184.187 403.442 192.022 395.819 200.766 389.629C201.029 389.442 201.295 389.249 201.572 389.07C205.528 386.301 209.705 383.861 214.059 381.772C216.447 380.637 218.89 379.623 221.381 378.734C227.82 376.451 234.578 375.194 241.408 375.011C255.022 374.649 268.601 378.645 278.418 387.834C278.669 388.069 278.913 388.301 279.161 388.543Z" fill="#E6E6E6"/>
<path d="M278.904 388.892C262.443 384.457 245.003 385.323 229.062 391.367C225.607 392.607 222.369 394.384 219.468 396.633C216.712 398.914 214.617 401.893 213.401 405.258C212.205 408.373 211.341 411.698 209.408 414.468C208.398 415.871 207.102 417.045 205.607 417.912C204.111 418.779 202.449 419.32 200.729 419.5C196.457 420.059 192.238 419.049 188.146 417.918C183.604 416.662 178.905 415.286 174.161 416.166C173.586 416.272 173.454 415.374 174.028 415.267C182.283 413.737 189.888 418.676 198.053 418.751C201.863 418.786 205.707 417.673 208.17 414.608C210.324 411.927 211.217 408.499 212.402 405.335C213.54 402.034 215.468 399.063 218.019 396.68C220.797 394.291 223.961 392.392 227.376 391.064C235.016 387.954 243.097 386.063 251.324 385.464C260.71 384.727 270.152 385.601 279.243 388.049C279.805 388.201 279.463 389.043 278.904 388.892Z" fill="white"/>
<path d="M234.08 389.119C233.43 386.306 233.8 383.353 235.125 380.788C236.45 378.223 238.643 376.213 241.313 375.116C241.854 374.896 242.221 375.726 241.68 375.947C239.191 376.963 237.148 378.836 235.92 381.227C234.691 383.619 234.357 386.37 234.978 388.986C235.113 389.555 234.214 389.684 234.08 389.119Z" fill="white"/>
<path d="M213.8 403.599C218.778 406.768 224.766 407.945 230.573 406.895C231.148 406.79 231.28 407.688 230.705 407.793C224.661 408.875 218.431 407.637 213.259 404.328C212.766 404.012 213.31 403.284 213.8 403.599Z" fill="white"/>
<path d="M260.319 385.866C260.344 387.006 260.652 388.123 261.215 389.116C261.779 390.108 262.579 390.945 263.546 391.551C264.042 391.861 263.498 392.588 263.005 392.28C261.94 391.605 261.057 390.68 260.432 389.585C259.807 388.49 259.46 387.258 259.421 385.998C259.408 385.88 259.44 385.761 259.511 385.665C259.582 385.569 259.687 385.504 259.804 385.483C259.923 385.466 260.044 385.497 260.14 385.568C260.237 385.64 260.301 385.747 260.319 385.866Z" fill="white"/>
<path d="M270.725 227.487C271.477 226.739 272.056 225.834 272.421 224.838C272.786 223.841 272.928 222.776 272.837 221.719C272.746 220.661 272.424 219.637 271.895 218.717C271.365 217.797 270.64 217.005 269.772 216.396L281.62 159.041L268.837 163.074L259.304 218.561C258.378 220.089 258.044 221.903 258.366 223.661C258.688 225.419 259.643 226.997 261.051 228.098C262.458 229.198 264.221 229.743 266.004 229.631C267.787 229.518 269.466 228.756 270.725 227.487Z" fill="#FFB6B6"/>
<path d="M298.111 74.175L290.193 68.1965C290.193 68.1965 283.208 67.7017 281.97 80.3015C280.733 92.9014 272.987 141.259 272.987 141.259L260.871 197.391L277.643 201.074L290.621 140.497L303.612 98.7054L298.111 74.175Z" fill="#E6E6E6"/>
<path d="M292.079 178.04L254.096 148.499C253.504 148.038 253.119 147.361 253.026 146.617C252.933 145.872 253.139 145.121 253.599 144.528L279.442 111.284C279.903 110.692 280.58 110.308 281.324 110.215C282.069 110.122 282.819 110.327 283.412 110.787L321.395 140.328C321.987 140.789 322.371 141.466 322.464 142.21C322.558 142.955 322.352 143.706 321.892 144.299L296.049 177.543C295.588 178.135 294.911 178.519 294.166 178.612C293.422 178.706 292.671 178.5 292.079 178.04Z" fill="#3F3D56"/>
<path d="M291.87 174.983L257.109 147.948C256.584 147.539 256.242 146.938 256.16 146.277C256.077 145.616 256.26 144.949 256.668 144.423L280.096 114.285C280.505 113.76 281.106 113.418 281.767 113.336C282.428 113.253 283.095 113.436 283.621 113.844L318.382 140.879C318.907 141.288 319.249 141.889 319.331 142.55C319.414 143.211 319.231 143.878 318.823 144.404L295.395 174.542C294.986 175.067 294.384 175.409 293.724 175.491C293.063 175.574 292.396 175.391 291.87 174.983Z" fill="white"/>
<path d="M261.666 147.182C261.535 147.08 261.449 146.929 261.429 146.764C261.408 146.599 261.454 146.432 261.556 146.301L273.375 131.097C273.477 130.966 273.627 130.88 273.792 130.859C273.874 130.849 273.957 130.855 274.037 130.877C274.116 130.899 274.191 130.936 274.256 130.987C274.321 131.037 274.375 131.1 274.416 131.172C274.457 131.244 274.483 131.323 274.493 131.405C274.504 131.486 274.498 131.569 274.476 131.649C274.454 131.729 274.417 131.803 274.366 131.868L262.547 147.072C262.445 147.203 262.295 147.288 262.129 147.309C261.964 147.33 261.798 147.284 261.666 147.182Z" fill="#E4E4E4"/>
<path d="M263.625 148.705C263.494 148.603 263.408 148.453 263.388 148.287C263.367 148.122 263.413 147.956 263.515 147.824L275.334 132.62C275.436 132.489 275.586 132.403 275.751 132.383C275.917 132.362 276.083 132.408 276.215 132.51C276.346 132.612 276.432 132.763 276.452 132.928C276.473 133.093 276.427 133.26 276.325 133.392L264.506 148.595C264.404 148.726 264.254 148.812 264.088 148.832C263.923 148.853 263.757 148.807 263.625 148.705Z" fill="#E4E4E4"/>
<path d="M272.279 141.616C272.148 141.513 272.063 141.363 272.042 141.198C272.021 141.033 272.067 140.866 272.169 140.734L277.292 134.144C277.343 134.079 277.406 134.024 277.477 133.983C277.549 133.942 277.628 133.916 277.71 133.905C277.792 133.895 277.875 133.901 277.955 133.923C278.034 133.945 278.109 133.982 278.174 134.033C278.239 134.083 278.294 134.147 278.335 134.218C278.375 134.29 278.402 134.369 278.412 134.451C278.422 134.533 278.416 134.616 278.394 134.696C278.372 134.775 278.334 134.85 278.284 134.915L273.161 141.505C273.058 141.637 272.908 141.722 272.743 141.743C272.578 141.763 272.411 141.718 272.279 141.616Z" fill="#E4E4E4"/>
<path d="M274.92 154.548C274.789 154.446 274.704 154.296 274.683 154.131C274.662 153.965 274.708 153.799 274.81 153.667L293.468 129.666C293.519 129.6 293.582 129.546 293.654 129.505C293.725 129.464 293.804 129.438 293.886 129.428C293.968 129.418 294.051 129.424 294.131 129.445C294.21 129.467 294.284 129.505 294.35 129.555C294.415 129.606 294.469 129.669 294.51 129.741C294.551 129.812 294.577 129.891 294.587 129.973C294.597 130.055 294.591 130.138 294.57 130.217C294.548 130.297 294.51 130.371 294.46 130.437L275.802 154.438C275.699 154.569 275.549 154.655 275.384 154.676C275.219 154.696 275.052 154.65 274.92 154.548Z" fill="#E4E4E4"/>
<path d="M276.879 156.072C276.748 155.969 276.663 155.819 276.642 155.654C276.621 155.489 276.667 155.322 276.769 155.19L295.427 131.189C295.478 131.124 295.541 131.069 295.613 131.028C295.684 130.988 295.763 130.961 295.845 130.951C295.927 130.941 296.01 130.947 296.09 130.969C296.169 130.991 296.243 131.028 296.309 131.079C296.374 131.129 296.428 131.192 296.469 131.264C296.51 131.336 296.536 131.415 296.546 131.496C296.556 131.578 296.55 131.661 296.529 131.741C296.507 131.82 296.469 131.895 296.419 131.96L277.761 155.962C277.658 156.093 277.508 156.178 277.343 156.199C277.178 156.22 277.011 156.174 276.879 156.072Z" fill="#E4E4E4"/>
<path d="M281.326 159.53C281.194 159.428 281.109 159.277 281.088 159.112C281.068 158.947 281.113 158.78 281.215 158.649L299.874 134.647C299.924 134.582 299.987 134.527 300.059 134.487C300.131 134.446 300.21 134.42 300.291 134.409C300.373 134.399 300.456 134.405 300.536 134.427C300.615 134.449 300.69 134.486 300.755 134.537C300.82 134.587 300.874 134.65 300.915 134.722C300.956 134.794 300.982 134.873 300.992 134.955C301.003 135.036 300.997 135.12 300.975 135.199C300.953 135.279 300.916 135.353 300.865 135.418L282.207 159.42C282.105 159.551 281.954 159.636 281.789 159.657C281.624 159.678 281.457 159.632 281.326 159.53Z" fill="#E4E4E4"/>
<path d="M283.285 161.054C283.153 160.951 283.068 160.801 283.047 160.636C283.027 160.47 283.072 160.304 283.174 160.172L301.833 136.171C301.883 136.105 301.946 136.051 302.018 136.01C302.09 135.969 302.169 135.943 302.25 135.933C302.332 135.923 302.415 135.929 302.495 135.95C302.574 135.972 302.649 136.01 302.714 136.06C302.779 136.111 302.833 136.174 302.874 136.246C302.915 136.317 302.941 136.396 302.952 136.478C302.962 136.56 302.956 136.643 302.934 136.723C302.912 136.802 302.875 136.877 302.824 136.942L284.166 160.943C284.064 161.075 283.913 161.16 283.748 161.181C283.583 161.201 283.416 161.156 283.285 161.054Z" fill="#E4E4E4"/>
<path d="M287.731 164.512C287.6 164.409 287.515 164.259 287.494 164.094C287.473 163.929 287.519 163.762 287.621 163.63L306.279 139.629C306.33 139.564 306.393 139.509 306.464 139.468C306.536 139.428 306.615 139.401 306.697 139.391C306.779 139.381 306.862 139.387 306.941 139.409C307.021 139.431 307.095 139.468 307.16 139.518C307.225 139.569 307.28 139.632 307.321 139.704C307.361 139.775 307.388 139.854 307.398 139.936C307.408 140.018 307.402 140.101 307.38 140.181C307.359 140.26 307.321 140.335 307.271 140.4L288.612 164.401C288.51 164.533 288.36 164.618 288.195 164.639C288.029 164.659 287.863 164.614 287.731 164.512Z" fill="#E4E4E4"/>
<path d="M289.69 166.035C289.559 165.933 289.473 165.782 289.453 165.617C289.432 165.452 289.478 165.285 289.58 165.154L308.238 141.152C308.34 141.021 308.491 140.936 308.655 140.916C308.82 140.895 308.987 140.941 309.118 141.043C309.249 141.145 309.335 141.295 309.355 141.46C309.376 141.625 309.331 141.792 309.229 141.923L290.571 165.925C290.469 166.056 290.319 166.141 290.153 166.162C289.988 166.183 289.822 166.137 289.69 166.035Z" fill="#E4E4E4"/>
<path d="M258.506 193.909C258.648 193.909 258.764 193.794 258.764 193.651C258.764 193.509 258.648 193.393 258.506 193.393C258.364 193.393 258.248 193.509 258.248 193.651C258.248 193.794 258.364 193.909 258.506 193.909Z" fill="white"/>
<path d="M296.076 16.213C295.169 21.0864 293.682 25.8337 291.646 30.3535C279.991 55.0167 313.184 46.9777 325.046 46.9777C338.016 46.9777 350.425 53.7993 348.53 23.4889C347.72 10.5416 338.016 0 325.046 0C313.968 0 298.392 4.92516 296.076 16.213Z" fill="#2F2E41"/>
<path d="M337.136 377.933H326.085L320.827 335.302H337.136V377.933Z" fill="#FFB6B6"/>
<path d="M342.968 397.084H335.043L333.629 389.6L330.006 397.084H308.989C307.981 397.084 307 396.762 306.188 396.164C305.377 395.567 304.778 394.726 304.478 393.764C304.178 392.802 304.193 391.77 304.522 390.817C304.85 389.864 305.475 389.042 306.304 388.469L323.088 376.875V369.31L340.742 370.364L342.968 397.084Z" fill="#2F2E41"/>
<path d="M402.785 363.985L393.917 370.581L364.265 339.51L377.352 329.775L402.785 363.985Z" fill="#FFB6B6"/>
<path d="M418.889 375.871L412.53 380.601L406.931 375.44L408.488 383.607L391.623 396.152C390.814 396.753 389.835 397.08 388.827 397.085C387.82 397.09 386.837 396.773 386.023 396.18C385.208 395.587 384.605 394.749 384.3 393.789C383.995 392.828 384.005 391.796 384.329 390.841L390.881 371.52L386.367 365.449L401.162 355.758L418.889 375.871Z" fill="#2F2E41"/>
<path d="M300.945 181.73L353.4 173.558L342.968 142.169H300.945V181.73Z" fill="#FFB6B6"/>
<path d="M350.001 157.978C350.001 157.978 370.967 176.096 361.293 227.745L349.483 278.352L381.659 334.227L365.298 343.153L325.647 288.03L307.503 245.46L297.906 170.852L350.001 157.978Z" fill="#2F2E41"/>
<path d="M317.504 257.592L316.243 277.126L319.934 334.971L338.262 341.282L341.732 282.015L317.504 257.592Z" fill="#2F2E41"/>
<path d="M311.87 53.4789L332.146 54.2701L340.227 67.6871L358.664 71.2872L347.657 126.981L349.681 158.681L331.323 158.569C318.093 158.488 305.298 163.296 295.393 172.07L295.943 130.921L288.046 100.203L289.821 67.9942L304.653 66.1398L311.87 53.4789Z" fill="#E6E6E6"/>
<path d="M323.103 46.972C333.642 46.972 342.186 38.4263 342.186 27.8846C342.186 17.3429 333.642 8.79724 323.103 8.79724C312.564 8.79724 304.02 17.3429 304.02 27.8846C304.02 38.4263 312.564 46.972 323.103 46.972Z" fill="#FFB6B6"/>
<path d="M310.144 8.42765C313.488 6.38861 317.318 5.28559 321.234 5.23396C325.15 5.18232 329.008 6.18395 332.404 8.13412C335.801 10.0843 338.611 12.9114 340.541 16.3197C342.472 19.7281 343.451 23.5926 343.377 27.5091C333.653 29.951 323.438 31.8198 313.068 28.0932L310.619 22.0984L309.175 28.0977C306.018 29.3887 302.851 30.4811 299.685 28.0852C299.556 24.1797 300.454 20.3087 302.289 16.8591C304.124 13.4095 306.833 10.5021 310.144 8.42765Z" fill="#2F2E41"/>
<path d="M355.134 197.163L357.707 220.514C357.886 221.097 358.247 221.606 358.737 221.969C359.228 222.331 359.821 222.526 360.43 222.526H372.288C372.898 222.526 373.491 222.331 373.981 221.969C374.472 221.607 374.833 221.097 375.012 220.514L377.143 202.617C377.758 202.918 378.436 203.07 379.121 203.058C379.805 203.047 380.478 202.873 381.082 202.551C381.687 202.229 382.206 201.768 382.598 201.206C382.99 200.644 383.243 199.997 383.336 199.318C383.429 198.639 383.359 197.948 383.133 197.301C382.907 196.655 382.531 196.071 382.035 195.598C381.539 195.125 380.939 194.777 380.282 194.581C379.626 194.386 378.932 194.349 378.259 194.474C377.993 194.16 377.662 193.908 377.288 193.735C376.915 193.562 376.508 193.473 376.097 193.474H357.858C357.412 193.474 356.972 193.579 356.574 193.78C356.176 193.981 355.831 194.272 355.566 194.631C355.301 194.99 355.124 195.406 355.049 195.846C354.974 196.286 355.003 196.737 355.134 197.163ZM377.515 201.406L378.82 197.163C378.971 196.673 378.986 196.152 378.863 195.654C378.919 195.651 378.972 195.638 379.028 195.638C379.848 195.638 380.634 195.963 381.213 196.543C381.793 197.123 382.118 197.909 382.118 198.728C382.118 199.548 381.793 200.334 381.213 200.914C380.634 201.493 379.848 201.819 379.028 201.819C378.497 201.816 377.975 201.673 377.515 201.406Z" fill="#003E7C"/>
<path d="M373.015 222.542C372.267 221.79 371.692 220.882 371.332 219.884C370.973 218.886 370.836 217.82 370.932 216.763C371.028 215.706 371.355 214.683 371.889 213.766C372.424 212.849 373.152 212.061 374.024 211.456L362.468 154.041L375.23 158.14L384.481 213.674C385.399 215.207 385.724 217.023 385.393 218.779C385.062 220.535 384.099 222.109 382.686 223.202C381.273 224.295 379.508 224.832 377.725 224.71C375.943 224.588 374.267 223.817 373.015 222.542Z" fill="#FFB6B6"/>
<path d="M350.745 77.2657L358.664 71.2872C358.664 71.2872 365.649 70.7924 366.886 83.3922C368.123 95.9921 375.869 144.35 375.869 144.35L387.986 200.482L371.213 204.165L358.235 143.588L345.244 101.796L350.745 77.2657Z" fill="#E6E6E6"/>
<path d="M282.405 129.53C284.88 129.53 286.887 127.523 286.887 125.047C286.887 122.571 284.88 120.563 282.405 120.563C279.929 120.563 277.923 122.571 277.923 125.047C277.923 127.523 279.929 129.53 282.405 129.53Z" fill="#003E7C"/>
<path d="M139.472 429.943L148.813 429.943L153.257 393.904L139.47 393.905L139.472 429.943Z" fill="#FFB6B6"/>
<path d="M137.089 426.893L139.718 426.892L149.983 422.717L155.485 426.892C158.594 426.892 161.577 428.127 163.775 430.326C165.974 432.525 167.209 435.508 167.209 438.618V438.999L137.089 439L137.089 426.893Z" fill="#2F2E41"/>
<path d="M175.67 424.055L184.783 426.113L197.054 391.939L183.605 388.902L175.67 424.055Z" fill="#FFB6B6"/>
<path d="M174.018 420.555L176.583 421.134L187.516 419.323L191.963 424.607L191.964 424.607C194.996 425.293 197.633 427.155 199.293 429.784C200.953 432.413 201.501 435.595 200.817 438.628L200.733 439L171.353 432.365L174.018 420.555Z" fill="#2F2E41"/>
<path d="M122.371 244.567L130.818 339.228C130.818 339.228 127.653 396.058 137.866 416.056H152.677L160.011 334.038L160.932 278.987L192.686 325.431L172.461 414.715L190.69 416.345L223.51 319.451L187.453 228.491L122.371 244.567Z" fill="#2F2E41"/>
<path d="M131.217 93.8216C143.249 93.8216 153.002 84.0662 153.002 72.0323C153.002 59.9984 143.249 50.243 131.217 50.243C119.186 50.243 109.433 59.9984 109.433 72.0323C109.433 84.0662 119.186 93.8216 131.217 93.8216Z" fill="#FFB8B8"/>
<path d="M169.513 114.586L151.641 106.916L142.941 97.6858L121.207 101.192L115.441 111.081L96.7737 128.443L118.644 227.353L117.982 248.957C117.982 248.957 131.98 255.26 192.686 240.747C193.414 240.573 191.89 239.811 191.89 239.811L169.513 114.586Z" fill="#3F3D56"/>
<path d="M108.565 84.3961C108.413 84.1889 108.263 83.98 108.114 83.7693C108.054 83.8958 108.007 84.0265 107.938 84.1501L108.565 84.3961Z" fill="#2F2E41"/>
<path d="M152.887 56.0944C151.431 52.9215 148.835 50.4127 145.614 49.0666C142.422 47.7788 138.855 47.7819 135.665 49.0753C132.785 47.2553 129.585 45.8125 126.215 45.6338C122.845 45.4551 119.282 46.7056 117.205 49.4583C116.742 50.1849 116.215 50.8694 115.631 51.5037C113.962 53.05 111.425 52.8269 109.206 52.5108C110.201 53.3639 111.197 54.217 112.193 55.0702C110.988 55.385 109.783 55.6997 108.578 56.0145C109.984 56.8674 111.39 57.7203 112.796 58.5731C108.714 61.0233 106.859 66.3712 107.349 71.2283C107.813 75.8267 110.033 80.0317 112.686 83.7692C113.744 81.5351 113.516 78.8618 113.499 76.3456C113.481 73.6869 113.951 70.6678 116.081 69.1819C117.518 68.1796 119.365 68.1349 121.098 68.1444C129.837 68.1924 138.567 68.7375 147.245 69.7771C148.422 69.8281 149.57 70.1611 150.592 70.7483C152.511 72.0577 152.885 74.76 153.078 77.1308C154.092 73.2163 154.588 69.1857 154.554 65.1422C154.639 62.0427 154.071 58.96 152.887 56.0944Z" fill="#2F2E41"/>
<path d="M159.669 310.925C178.606 310.925 193.956 295.57 193.956 276.63C193.956 257.689 178.606 242.335 159.669 242.335C140.733 242.335 125.382 257.689 125.382 276.63C125.382 295.57 140.733 310.925 159.669 310.925Z" fill="white"/>
<path d="M159.669 241.573C157.907 241.573 156.147 241.706 154.404 241.969C153.513 242.099 152.645 242.267 151.783 242.472C145.458 243.931 139.662 247.118 135.042 251.679C130.423 256.24 127.161 261.996 125.621 268.303C124.081 274.61 124.323 281.222 126.32 287.399C128.318 293.577 131.992 299.078 136.933 303.288C137.52 303.784 138.114 304.264 138.731 304.721C143.18 308.038 148.352 310.252 153.822 311.179C159.293 312.106 164.905 311.721 170.198 310.055C175.49 308.388 180.312 305.489 184.265 301.595C188.218 297.7 191.19 292.923 192.937 287.655C194.683 282.388 195.155 276.78 194.311 271.295C193.468 265.81 191.334 260.603 188.086 256.104C184.838 251.605 180.568 247.941 175.628 245.415C170.687 242.889 165.218 241.572 159.669 241.573ZM159.669 310.163C152.541 310.17 145.598 307.892 139.859 303.662C139.234 303.205 138.632 302.732 138.046 302.229C133.232 298.167 129.66 292.831 127.74 286.831C125.819 280.831 125.629 274.412 127.189 268.309C128.75 262.206 131.999 256.666 136.563 252.326C141.127 247.985 146.822 245.019 152.995 243.768C153.848 243.593 154.702 243.455 155.57 243.349C156.93 243.18 158.299 243.096 159.669 243.097C168.561 243.097 177.088 246.63 183.375 252.919C189.662 259.207 193.194 267.736 193.194 276.63C193.194 285.523 189.662 294.053 183.375 300.341C177.088 306.63 168.561 310.163 159.669 310.163Z" fill="#3F3D56"/>
<path d="M142.852 269.771H176.487C177.719 269.771 178.718 268.772 178.718 267.539V267.43C178.718 266.197 177.719 265.198 176.487 265.198H142.852C141.62 265.198 140.621 266.197 140.621 267.43V267.539C140.621 268.772 141.62 269.771 142.852 269.771Z" fill="#003E7C"/>
<path d="M142.852 278.916H176.487C177.719 278.916 178.718 277.917 178.718 276.685V276.575C178.718 275.343 177.719 274.344 176.487 274.344H142.852C141.62 274.344 140.621 275.343 140.621 276.575V276.685C140.621 277.917 141.62 278.916 142.852 278.916Z" fill="#003E7C"/>
<path d="M142.852 288.062H176.487C177.719 288.062 178.718 287.062 178.718 285.83V285.72C178.718 284.488 177.719 283.489 176.487 283.489H142.852C141.62 283.489 140.621 284.488 140.621 285.72V285.83C140.621 287.062 141.62 288.062 142.852 288.062Z" fill="#003E7C"/>
<path d="M543.266 428.78L533.471 428.779L528.811 390.991L543.267 390.991L543.266 428.78Z" fill="#9E616A"/>
<path d="M496.927 428.78L487.133 428.779L482.473 390.991L496.929 390.991L496.927 428.78Z" fill="#9E616A"/>
<path d="M497.272 439L467.153 438.999V438.618C467.153 435.508 468.388 432.525 470.587 430.326C472.785 428.127 475.767 426.892 478.876 426.892H478.877L484.379 422.717L494.644 426.892L497.273 426.893L497.272 439Z" fill="#2F2E41"/>
<path d="M544.867 439L514.748 438.999V438.618C514.748 435.508 515.983 432.525 518.182 430.326C520.38 428.127 523.362 426.892 526.471 426.892H526.472L531.974 422.717L542.239 426.892L544.868 426.893L544.867 439Z" fill="#2F2E41"/>
<path d="M487.32 205.135L472.434 295.797L476.485 309.307L471.169 318.876L478.975 402.907L475.807 409.886L484.66 415.347H502.677L503.633 339.273L508.083 328.103V321.948L517.143 275.559L518.811 340.523L521.446 351.71L519.232 359.675L522.125 365.255L529.808 417.005H550.01L548.447 404.965C550.207 404.074 551.621 402.623 552.466 400.841C553.312 399.059 553.541 397.046 553.118 395.119L551.96 389.842L554.596 374.239L559.396 287.192L558.043 216.956L534.41 198.881L487.32 205.135Z" fill="#2F2E41"/>
<path d="M521.446 88.7139C531.812 88.7139 540.215 80.3087 540.215 69.9403C540.215 59.572 531.812 51.1667 521.446 51.1667C511.08 51.1667 502.677 59.572 502.677 69.9403C502.677 80.3087 511.08 88.7139 521.446 88.7139Z" fill="#9E616A"/>
<path d="M480.437 241.112C481.254 240.268 481.876 239.255 482.259 238.145C482.642 237.034 482.777 235.853 482.654 234.685C482.531 233.516 482.154 232.389 481.549 231.382C480.944 230.376 480.125 229.514 479.151 228.858L486.449 201.25L472.387 205.981L467.612 231.473C466.619 233.183 466.287 235.198 466.68 237.136C467.073 239.075 468.163 240.802 469.744 241.99C471.325 243.178 473.286 243.745 475.257 243.584C477.228 243.422 479.071 242.542 480.437 241.112Z" fill="#9E616A"/>
<path d="M488.118 108.564L485.1 107.938L482.526 109.363C482.526 109.363 475.335 118.953 475.335 127.743C475.335 136.533 466.547 221.24 466.547 221.24L482.526 228.432L495.309 162.105L488.118 108.564Z" fill="#E6E6E6"/>
<path d="M537.883 56.1758C537.883 56.1758 542.792 46.789 531.992 45.9356C531.992 45.9356 522.785 37.5816 513.4 44.4084C513.4 44.4084 508.281 44.4084 505.482 50.2023C505.482 50.2023 501.456 48.6751 500.571 52.7624C500.571 52.7624 497.625 61.2959 500.571 68.976C503.517 76.6561 504.495 77.5094 504.495 77.5094C504.495 77.5094 499.655 61.4076 511.438 60.5543C523.221 59.701 536.406 52.3357 537.388 61.7225C538.37 71.1093 539.848 73.4221 539.848 73.4221C539.848 73.4221 549.174 60.0158 537.883 56.1758Z" fill="#2F2E41"/>
<path d="M606.446 318.876C605.029 318.878 603.662 318.356 602.606 317.411L545.804 266.836C544.66 265.815 543.967 264.381 543.878 262.849C543.789 261.317 544.311 259.813 545.33 258.666L581.718 217.778C582.739 216.633 584.172 215.94 585.704 215.851C587.235 215.762 588.74 216.284 589.887 217.303L646.689 267.879C647.835 268.899 648.529 270.333 648.618 271.865C648.707 273.397 648.184 274.902 647.164 276.048L610.776 316.936C610.272 317.505 609.66 317.969 608.976 318.3C608.292 318.631 607.548 318.824 606.789 318.866C606.674 318.873 606.56 318.876 606.446 318.876Z" fill="white"/>
<path d="M606.445 319.248C604.938 319.25 603.483 318.695 602.359 317.689L545.557 267.114C544.339 266.027 543.602 264.501 543.507 262.871C543.412 261.24 543.968 259.639 545.052 258.418L581.44 217.531C582.527 216.312 584.053 215.575 585.683 215.48C587.312 215.385 588.913 215.941 590.134 217.025L646.937 267.6C648.156 268.687 648.895 270.213 648.989 271.844C649.084 273.474 648.527 275.076 647.442 276.296L611.053 317.183C610.517 317.789 609.866 318.283 609.138 318.635C608.41 318.988 607.619 319.193 606.811 319.238C606.689 319.244 606.567 319.248 606.445 319.248ZM586.042 216.956C585.383 216.955 584.731 217.094 584.129 217.363C583.527 217.633 582.989 218.027 582.551 218.52L546.163 259.407C545.341 260.333 544.919 261.548 544.991 262.784C545.063 264.021 545.622 265.178 546.546 266.003L603.348 316.577C603.807 316.985 604.34 317.299 604.92 317.501C605.499 317.702 606.112 317.788 606.725 317.752C607.337 317.716 607.937 317.56 608.489 317.293C609.041 317.026 609.535 316.652 609.942 316.194L646.331 275.307C647.154 274.381 647.576 273.167 647.505 271.93C647.433 270.693 646.873 269.535 645.948 268.712L589.145 218.136C588.291 217.375 587.186 216.955 586.042 216.956Z" fill="#3F3D56"/>
<path d="M627.044 280.153C626.43 280.154 625.838 279.929 625.38 279.521L580.793 239.821C580.546 239.603 580.345 239.338 580.2 239.042C580.056 238.745 579.972 238.423 579.952 238.094C579.933 237.766 579.978 237.436 580.086 237.125C580.194 236.813 580.362 236.526 580.581 236.28C580.8 236.034 581.066 235.833 581.363 235.69C581.659 235.547 581.981 235.463 582.31 235.445C582.639 235.426 582.969 235.473 583.28 235.582C583.59 235.691 583.877 235.86 584.122 236.08L628.71 275.78C629.089 276.117 629.357 276.562 629.478 277.055C629.598 277.549 629.566 278.067 629.385 278.541C629.204 279.016 628.884 279.424 628.465 279.712C628.047 280 627.551 280.154 627.044 280.153Z" fill="#003E7C"/>
<path d="M618.539 289.709C617.926 289.71 617.333 289.485 616.876 289.076L572.288 249.377C572.043 249.158 571.843 248.893 571.699 248.597C571.556 248.301 571.473 247.98 571.454 247.652C571.435 247.324 571.48 246.995 571.588 246.684C571.696 246.374 571.865 246.087 572.083 245.842C572.302 245.596 572.567 245.396 572.863 245.253C573.159 245.11 573.48 245.026 573.808 245.007C574.136 244.988 574.465 245.034 574.775 245.142C575.086 245.25 575.372 245.418 575.618 245.637L620.206 285.336C620.585 285.674 620.852 286.119 620.973 286.612C621.094 287.105 621.061 287.623 620.881 288.098C620.7 288.572 620.379 288.98 619.961 289.268C619.543 289.556 619.047 289.71 618.539 289.709Z" fill="#003E7C"/>
<path d="M610.035 299.266C609.421 299.267 608.828 299.042 608.371 298.633L563.783 258.934C563.537 258.716 563.336 258.451 563.193 258.155C563.049 257.858 562.965 257.537 562.946 257.208C562.927 256.88 562.973 256.551 563.081 256.24C563.189 255.929 563.357 255.642 563.576 255.397C563.794 255.151 564.06 254.951 564.356 254.807C564.652 254.664 564.974 254.581 565.302 254.562C565.631 254.543 565.959 254.589 566.27 254.697C566.581 254.806 566.867 254.974 567.113 255.193L611.7 294.893C612.079 295.23 612.347 295.675 612.468 296.168C612.589 296.661 612.556 297.18 612.376 297.654C612.195 298.129 611.874 298.537 611.456 298.825C611.038 299.113 610.542 299.267 610.035 299.266Z" fill="#003E7C"/>
<path d="M559.045 242.742C558.473 241.716 558.132 240.577 558.048 239.405C557.963 238.233 558.137 237.057 558.556 235.96C558.975 234.863 559.629 233.87 560.473 233.053C561.317 232.236 562.33 231.614 563.44 231.231L563.488 202.675L575.86 210.865L573.917 236.727C574.437 238.635 574.239 240.668 573.361 242.44C572.483 244.212 570.985 245.6 569.152 246.342C567.319 247.083 565.277 247.126 563.414 246.463C561.552 245.799 559.997 244.475 559.045 242.742Z" fill="#9E616A"/>
<path d="M560.188 116.389L565.715 111.061L569.775 113.992C569.775 113.992 573.77 118.787 576.966 133.171C580.162 147.555 576.966 226.668 576.966 226.668L559.389 224.27L561.786 182.716L554.596 147.555L560.188 116.389Z" fill="#E6E6E6"/>
<path d="M568.35 112.361L549.729 103.464L537.086 91.7351L514.033 91.5625L506.596 101.232L486.963 107.903L490.235 175.616L488.004 180.823C488.004 180.823 489.558 182.228 490.269 183.013C490.979 183.799 489.287 190.374 489.287 190.374L488.334 197.529L490.979 199.419L487.54 203.482L486.686 209.886C486.686 209.886 546.712 194.964 558.054 219.684C558.653 220.991 557.177 208.226 557.177 208.226L555.702 198.881L557.165 190.493L559.396 188.262L555.655 184.519L558.054 166.761L568.35 112.361Z" fill="#3F3D56"/>
<path d="M146.064 262.476C146.526 261.302 146.726 260.041 146.648 258.782C146.57 257.523 146.217 256.297 145.614 255.189C145.012 254.081 144.173 253.119 143.158 252.37C142.143 251.621 140.977 251.104 139.74 250.855L135.604 220.474L123.61 230.96L129.377 258.203C129.097 260.308 129.598 262.443 130.786 264.203C131.974 265.963 133.767 267.226 135.823 267.753C137.88 268.279 140.059 268.033 141.946 267.06C143.834 266.088 145.299 264.456 146.064 262.476Z" fill="#FFB8B8"/>
<path d="M99.0753 127.887L95.8244 128.51L93.8594 130.985C93.8594 130.985 90.6806 143.456 94.3018 152.172C97.9231 160.887 124.105 248.497 124.105 248.497L142.911 249.042L128.261 178.01L99.0753 127.887Z" fill="#3F3D56"/>
<path d="M173.213 258.019C172.347 257.102 171.692 256.007 171.295 254.81C170.898 253.612 170.768 252.343 170.914 251.09C171.06 249.837 171.48 248.631 172.142 247.558C172.805 246.485 173.695 245.57 174.749 244.878L167.262 215.145L182.3 220.402L187.104 247.831C188.149 249.68 188.48 251.848 188.033 253.924C187.587 256 186.395 257.841 184.683 259.096C182.97 260.352 180.857 260.936 178.743 260.737C176.629 260.539 174.662 259.572 173.213 258.019Z" fill="#FFB8B8"/>
<path d="M166.643 115.612L169.892 114.977L172.637 116.54C172.637 116.54 180.236 126.927 180.125 136.365C180.014 145.802 188.378 236.859 188.378 236.859L171.131 244.378L158.246 173.005L166.643 115.612Z" fill="#3F3D56"/>
</g>
<defs>
<clipPath id="clip0_14_64">
<rect width="649" height="439" fill="white"/>
</clipPath>
</defs>
</svg>
